<svg width="71" height="71" viewBox="0 0 71 71" fill="none" xmlns="http://www.w3.org/2000/svg">
<rect x="0.600098" y="0.199707" width="70.4" height="70.4" rx="35.2" fill="black"/>
<path d="M41.1016 29.7861H31.1139C30.6899 29.7861 30.3457 30.108 30.3457 30.505V39.8504C30.3457 40.2474 30.6899 40.5693 31.1139 40.5693H41.1016C41.526 40.5693 41.8699 40.2474 41.8699 39.8504V30.505C41.8699 30.108 41.526 29.7861 41.1016 29.7861Z" fill="white"/>
<path d="M29.5801 19.002H19.5927C19.1683 19.002 18.8245 19.3238 18.8245 19.7208V29.0662C18.8245 29.4632 19.1683 29.7851 19.5927 29.7851H29.5801C30.0045 29.7851 30.3486 29.4632 30.3486 29.0662V19.7208C30.3486 19.3238 30.0045 19.002 29.5801 19.002Z" fill="white"/>
<path d="M52.6321 19.002H42.6445C42.2204 19.002 41.8762 19.3238 41.8762 19.7208V29.0662C41.8762 29.4632 42.2204 29.7851 42.6445 29.7851H52.6321C53.0565 29.7851 53.4004 29.4632 53.4004 29.0662V19.7208C53.4004 19.3238 53.0565 19.002 52.6321 19.002Z" fill="white"/>
<path d="M29.5801 40.5693H19.5927C19.1683 40.5693 18.8245 40.8912 18.8245 41.2882V50.6337C18.8245 51.0306 19.1683 51.3526 19.5927 51.3526H29.5801C30.0045 51.3526 30.3486 51.0306 30.3486 50.6337V41.2882C30.3486 40.8912 30.0045 40.5693 29.5801 40.5693Z" fill="white"/>
<path d="M52.6319 40.5693H42.6442C42.2201 40.5693 41.876 40.8912 41.876 41.2882V50.6337C41.876 51.0306 42.2201 51.3526 42.6442 51.3526H52.6319C53.0563 51.3526 53.4001 51.0306 53.4001 50.6337V41.2882C53.4001 40.8912 53.0563 40.5693 52.6319 40.5693Z" fill="white"/>
</svg>
