<svg width="100" height="100" viewBox="0 0 100 100" fill="none" xmlns="http://www.w3.org/2000/svg">
<rect x="0.400024" y="0.800781" width="99.2" height="99.2" rx="32" fill="#148CF8"/>
<rect x="14.1777" y="14.5781" width="34.3893" height="34.3893" rx="9.6" fill="white"/>
<rect x="14.1777" y="51.834" width="34.3893" height="34.3893" rx="9.6" fill="white"/>
<rect x="51.4329" y="14.5781" width="34.3893" height="34.3893" rx="9.6" fill="white"/>
<path d="M58.1915 77.6248C57.0236 77.6248 56.0484 77.4271 55.2658 77.0319C54.4833 76.6234 53.8935 76.0964 53.4964 75.4507C53.0993 74.7919 52.8891 74.087 52.8657 73.336C52.8657 73.2174 52.9008 73.1186 52.9708 73.0395C53.0526 72.9473 53.146 72.9012 53.2511 72.9012H56.1768C56.352 72.9012 56.4863 72.9407 56.5798 73.0198C56.6732 73.0988 56.7374 73.1779 56.7725 73.2569C56.8893 73.4809 57.0119 73.672 57.1404 73.8301C57.2689 73.975 57.4207 74.087 57.5959 74.1661C57.7711 74.232 57.9755 74.2649 58.209 74.2649C58.466 74.2649 58.7054 74.2056 58.9273 74.087C59.1492 73.9553 59.3244 73.7708 59.4529 73.5336C59.5931 73.2833 59.6631 72.9803 59.6631 72.6245C59.6631 72.3215 59.5989 72.0579 59.4704 71.8339C59.3536 71.5968 59.1843 71.4057 58.9624 71.2608C58.7521 71.1158 58.501 71.0434 58.209 71.0434C57.9755 71.0434 57.7827 71.0763 57.6309 71.1422C57.4908 71.1949 57.374 71.2608 57.2805 71.3398C57.1871 71.4189 57.0995 71.4914 57.0177 71.5572C56.9477 71.6099 56.8659 71.6363 56.7725 71.6363H53.8818C53.7767 71.6363 53.6833 71.5968 53.6015 71.5177C53.5314 71.4255 53.4964 71.3201 53.4964 71.2015L54.1621 64.1853C54.1855 63.9745 54.2556 63.8164 54.3724 63.7109C54.5008 63.6055 54.641 63.5528 54.7928 63.5528H62.2209C62.3494 63.5528 62.4545 63.6055 62.5363 63.7109C62.6297 63.8032 62.6764 63.9218 62.6764 64.0667V66.3988C62.6764 66.5306 62.6297 66.6492 62.5363 66.7546C62.4545 66.86 62.3494 66.9127 62.2209 66.9127H57.1229L56.9477 68.8891C57.2397 68.6651 57.5492 68.5004 57.8762 68.395C58.2149 68.2764 58.6821 68.2171 59.2777 68.2171C59.8266 68.2171 60.3522 68.3291 60.8544 68.5531C61.3683 68.7639 61.8238 69.0736 62.2209 69.482C62.6297 69.8773 62.9509 70.3516 63.1845 70.905C63.4181 71.4584 63.5348 72.0711 63.5348 72.7431C63.5348 73.639 63.3305 74.456 62.9217 75.1938C62.5129 75.9317 61.9114 76.5246 61.1172 76.9726C60.323 77.4074 59.3478 77.6248 58.1915 77.6248Z" fill="white"/>
<path d="M68.8964 77.3876C68.7679 77.3876 68.6569 77.3415 68.5635 77.2493C68.4818 77.1439 68.4409 77.0187 68.4409 76.8738V68.1776L66.251 70.0749C66.1342 70.1672 66.0174 70.2001 65.9006 70.1738C65.7955 70.1342 65.6962 70.0486 65.6028 69.9168L64.3239 68.0393C64.2655 67.9207 64.2421 67.7889 64.2538 67.644C64.2772 67.499 64.3473 67.387 64.464 67.308L68.5986 63.6912C68.6569 63.6385 68.7153 63.6055 68.7737 63.5924C68.8321 63.566 68.9022 63.5528 68.984 63.5528H71.7345C71.8629 63.5528 71.9739 63.6055 72.0673 63.7109C72.1608 63.8032 72.2075 63.9218 72.2075 64.0667V76.8738C72.2075 77.0187 72.1608 77.1439 72.0673 77.2493C71.9739 77.3415 71.8629 77.3876 71.7345 77.3876H68.8964Z" fill="white"/>
<path d="M74.3859 77.3876C74.2574 77.3876 74.1464 77.3415 74.053 77.2493C73.9713 77.1439 73.9304 77.0187 73.9304 76.8738V75.1543C73.9304 75.0621 73.9479 74.9105 73.9829 74.6997C74.0297 74.4889 74.1581 74.2978 74.3684 74.1266L75.3845 73.0395C76.459 72.1436 77.3524 71.386 78.0649 70.7667C78.7773 70.1342 79.3087 69.5874 79.6591 69.1263C80.0212 68.6651 80.2022 68.2369 80.2022 67.8416C80.2022 67.5254 80.1321 67.2553 79.992 67.0313C79.8635 66.7941 79.6007 66.6755 79.2036 66.6755C78.9116 66.6755 78.6781 66.748 78.5029 66.8929C78.3277 67.0379 78.1934 67.2158 78.0999 67.4266C78.0182 67.6374 77.9539 67.8416 77.9072 68.0393C77.8605 68.2105 77.7787 68.3291 77.6619 68.395C77.5451 68.4609 77.4108 68.4938 77.259 68.4938H74.526C74.4092 68.4938 74.3158 68.4543 74.2457 68.3752C74.1756 68.283 74.1406 68.1776 74.1406 68.059C74.1523 67.3607 74.2808 66.7282 74.526 66.1617C74.783 65.5819 75.1334 65.0747 75.5772 64.6398C76.021 64.205 76.5466 63.8756 77.1539 63.6517C77.7729 63.4145 78.4503 63.2959 79.1861 63.2959C80.2139 63.2959 81.0957 63.4738 81.8315 63.8295C82.5673 64.1853 83.1337 64.686 83.5308 65.3316C83.9279 65.9772 84.1265 66.748 84.1265 67.644C84.1265 68.3291 83.9863 68.9682 83.706 69.5611C83.4257 70.154 83.0286 70.7206 82.5147 71.2608C82.0008 71.7878 81.3935 72.3346 80.6927 72.9012L79.8343 73.8499H83.9338C84.0623 73.8499 84.1674 73.9026 84.2491 74.008C84.3426 74.1134 84.3893 74.2386 84.3893 74.3835V76.8738C84.3893 77.0187 84.3426 77.1439 84.2491 77.2493C84.1674 77.3415 84.0623 77.3876 83.9338 77.3876H74.3859Z" fill="white"/>
</svg>
