<svg width="100" height="100" viewBox="0 0 100 100" fill="none" xmlns="http://www.w3.org/2000/svg">
<rect y="0.800781" width="99.2" height="99.2" rx="32" fill="#148CF8"/>
<g clip-path="url(#clip0_1250_24366)">
<path d="M46.7277 19.0502C48.5488 18.1877 50.651 18.1877 52.4721 19.0502L79.1899 31.6752C80.2288 32.1627 80.8888 33.2252 80.8888 34.4002C80.8888 35.5752 80.2288 36.6377 79.1899 37.1252L52.4721 49.7502C50.651 50.6127 48.5488 50.6127 46.7277 49.7502L20.0099 37.1252C18.971 36.6252 18.311 35.5627 18.311 34.4002C18.311 33.2377 18.971 32.1627 20.0099 31.6752L46.7277 19.0502ZM72.6877 44.6002L79.1899 47.6752C80.2288 48.1627 80.8888 49.2252 80.8888 50.4002C80.8888 51.5752 80.2288 52.6377 79.1899 53.1252L52.4721 65.7502C50.651 66.6127 48.5488 66.6127 46.7277 65.7502L20.0099 53.1252C18.971 52.6252 18.311 51.5627 18.311 50.4002C18.311 49.2377 18.971 48.1627 20.0099 47.6752L26.5121 44.6002L45.0899 53.3752C46.504 54.0423 48.0427 54.3877 49.5999 54.3877C51.1572 54.3877 52.6959 54.0423 54.1099 53.3752L72.6877 44.6002ZM54.1099 69.3752L72.6877 60.6002L79.1899 63.6752C80.2288 64.1627 80.8888 65.2252 80.8888 66.4002C80.8888 67.5752 80.2288 68.6377 79.1899 69.1252L52.4721 81.7502C50.651 82.6127 48.5488 82.6127 46.7277 81.7502L20.0099 69.1252C18.971 68.6252 18.311 67.5627 18.311 66.4002C18.311 65.2377 18.971 64.1627 20.0099 63.6752L26.5121 60.6002L45.0899 69.3752C46.504 70.0423 48.0427 70.3877 49.5999 70.3877C51.1572 70.3877 52.6959 70.0423 54.1099 69.3752Z" fill="white"/>
</g>
<defs>
<clipPath id="clip0_1250_24366">
<rect width="70.4" height="64" fill="white" transform="translate(14.3999 18.4004)"/>
</clipPath>
</defs>
</svg>
