<svg width="97" height="97" viewBox="0 0 97 97" fill="none" xmlns="http://www.w3.org/2000/svg">
<rect x="3.8" y="3.8" width="89.6" height="89.6" rx="44.8" fill="#0098EA"/>
<rect x="3.8" y="3.8" width="89.6" height="89.6" rx="44.8" stroke="#ADD7FF" stroke-width="6.4"/>
<path fill-rule="evenodd" clip-rule="evenodd" d="M30.4667 48.6C30.4667 38.5852 38.5852 30.4666 48.6 30.4666C58.6148 30.4666 66.7333 38.5852 66.7333 48.6C66.7333 58.6147 58.6148 66.7333 48.6 66.7333C38.5852 66.7333 30.4667 58.6147 30.4667 48.6ZM50.2 37.9333C50.2 37.0497 49.4837 36.3333 48.6 36.3333C47.7164 36.3333 47 37.0497 47 37.9333V48.6C47 49.1516 47.2842 49.6644 47.752 49.9568L54.152 53.9568C54.9014 54.4251 55.8885 54.1973 56.3568 53.448C56.8251 52.6986 56.5973 51.7115 55.848 51.2432L50.2 47.7132V37.9333Z" fill="white"/>
</svg>
