<svg width="97" height="96" viewBox="0 0 97 96" fill="none" xmlns="http://www.w3.org/2000/svg">
<rect x="3.99995" y="3.20039" width="89.6" height="89.6" rx="44.8" fill="#0098EA"/>
<rect x="3.99995" y="3.20039" width="89.6" height="89.6" rx="44.8" stroke="#ADD7FF" stroke-width="6.4"/>
<path d="M41.1197 33.6006C35.1872 33.6006 30.1331 38.0364 30.1331 43.7975C30.1331 47.7718 31.9941 51.1178 34.4605 53.8895C36.9185 56.6517 40.0896 58.9702 42.9565 60.9108L47.9028 64.2589C48.4445 64.6256 49.1549 64.6256 49.6966 64.2589L54.643 60.9108C57.5098 58.9702 60.681 56.6517 63.1389 53.8895C65.6054 51.1178 67.4664 47.7718 67.4664 43.7975C67.4664 38.0364 62.4122 33.6006 56.4797 33.6006C53.4216 33.6006 50.7307 35.0345 48.7997 36.8898C46.8687 35.0345 44.1778 33.6006 41.1197 33.6006Z" fill="white"/>
</svg>
