<svg width="97" height="96" viewBox="0 0 97 96" fill="none" xmlns="http://www.w3.org/2000/svg">
<rect x="3.8" y="3.20039" width="89.6" height="89.6" rx="44.8" fill="#0098EA"/>
<rect x="3.8" y="3.20039" width="89.6" height="89.6" rx="44.8" stroke="#ADD7FF" stroke-width="6.4"/>
<path d="M50.4454 28.7926C49.6233 27.3758 47.5772 27.3758 46.755 28.7926L40.9651 38.7709C40.5589 39.4708 39.857 39.9484 39.0568 40.0693L28.206 41.7082C26.3835 41.9834 25.7443 44.2845 27.1636 45.4603L35.247 52.1574C35.9952 52.7773 36.3471 53.7551 36.1653 54.7097L34.0508 65.814C33.7165 67.5693 35.5593 68.9332 37.1404 68.1007L47.3578 62.7208C48.1355 62.3113 49.065 62.3113 49.8426 62.7208L60.06 68.1007C61.6412 68.9332 63.4839 67.5693 63.1496 65.814L61.0352 54.7097C60.8534 53.7551 61.2052 52.7773 61.9535 52.1574L70.0369 45.4603C71.4562 44.2845 70.8169 41.9834 68.9944 41.7082L58.1436 40.0693C57.3435 39.9484 56.6415 39.4708 56.2354 38.7709L50.4454 28.7926Z" fill="white"/>
</svg>
