<svg width="97" height="96" viewBox="0 0 97 96" fill="none" xmlns="http://www.w3.org/2000/svg">
<rect x="3.60005" y="3.20039" width="89.6" height="89.6" rx="44.8" fill="#0098EA"/>
<rect x="3.60005" y="3.20039" width="89.6" height="89.6" rx="44.8" stroke="#ADD7FF" stroke-width="6.4"/>
<path d="M52.2827 28.8006C52.2827 28.373 52.0273 27.9867 51.6339 27.8192C51.2404 27.6516 50.785 27.7353 50.4767 28.0317L46.6837 31.6788C41.0363 37.109 36.2644 43.3814 32.5379 50.2729C32.4501 50.4278 32.4 50.6069 32.4 50.7977C32.4 51.3868 32.8776 51.8643 33.4667 51.8643H42.6614V67.2006C42.6614 67.623 42.9106 68.0056 43.297 68.1763C43.6834 68.347 44.1341 68.2736 44.4463 67.9891L46.1434 66.4432C52.0842 61.0316 57.1257 54.709 61.079 47.7126L62.1287 45.8548C62.3153 45.5245 62.3125 45.12 62.1213 44.7924C61.9301 44.4648 61.5793 44.2634 61.2 44.2634H52.2827V28.8006Z" fill="white"/>
</svg>
