<svg width="53" height="53" viewBox="0 0 53 53" fill="none" xmlns="http://www.w3.org/2000/svg">
<rect width="52.8" height="52.8" rx="26.4" fill="#0098EA"/>
<path fill-rule="evenodd" clip-rule="evenodd" d="M11.0989 24.2502C20.0753 20.3393 26.0611 17.761 29.056 16.5153C37.6073 12.9585 39.3841 12.3407 40.5423 12.3203C40.797 12.3158 41.3665 12.3789 41.7355 12.6783C42.047 12.9311 42.1327 13.2725 42.1737 13.5122C42.2147 13.7518 42.2658 14.2978 42.2252 14.7243C41.7618 19.5933 39.7567 31.4089 38.7366 36.8621C38.305 39.1696 37.4551 39.9433 36.6323 40.019C34.8441 40.1836 33.4863 38.8373 31.7544 37.702C29.0443 35.9255 27.5133 34.8197 24.8827 33.0861C21.8425 31.0827 23.8133 29.9816 25.5459 28.1821C25.9993 27.7112 33.8779 20.545 34.0304 19.8949C34.0495 19.8136 34.0672 19.5105 33.8871 19.3505C33.7071 19.1905 33.4413 19.2452 33.2496 19.2887C32.9778 19.3504 28.6484 22.212 20.2614 27.8734C19.0325 28.7173 17.9194 29.1284 16.9221 29.1069C15.8227 29.0831 13.7078 28.4852 12.1356 27.9742C10.2073 27.3474 8.67469 27.016 8.80815 25.9514C8.87766 25.3969 9.64124 24.8299 11.0989 24.2502Z" fill="white"/>
</svg>
